<svg width="65" height="64" viewBox="0 0 65 64" fill="none" xmlns="http://www.w3.org/2000/svg">
<path d="M22.0853 12.4578L22.0851 12.4578C20.6125 11.8374 19.3401 11.4792 18.0277 11.4378C16.7132 11.3963 15.4395 11.6751 13.9678 12.2052L22.0853 12.4578ZM22.0853 12.4578C26.9266 14.4982 29.5803 19.6279 28.4804 24.7893C28.1908 26.1481 28.1607 26.5345 28.269 26.8574C28.3212 27.0128 28.4285 27.2096 28.6866 27.524C28.9497 27.8447 29.3203 28.2302 29.8588 28.7786C31.5791 30.5307 32.3761 31.8243 32.6341 33.6605L32.8093 34.9066L33.7908 34.9461L33.7912 34.9461M22.0853 12.4578L33.7912 34.9461M33.7912 34.9461C34.3826 34.9702 34.9998 35.0838 35.5313 35.2483C36.0181 35.399 36.5975 35.6417 36.9693 36.0203C37.3259 36.3835 37.5896 36.9791 37.771 37.4923C37.9701 38.0557 38.1369 38.7178 38.2266 39.3562L38.4018 40.6023L39.3833 40.6418C40.6772 40.6939 42.2021 41.3498 43.0962 42.2604C44.2013 43.3859 44.4366 44.8685 43.952 46.2036C43.4782 47.5087 42.3481 48.6173 40.8159 49.2357L40.8158 49.2358M33.7912 34.9461L40.8158 49.2358M40.8158 49.2358L39.0987 49.9285L38.4791 50.1785M40.8158 49.2358L38.4791 50.1785M38.4791 50.1785L38.0111 49.7017M38.4791 50.1785L38.0111 49.7017M38.0111 49.7017L29.7709 41.3095L21.8513 33.2445L18.6171 33.4561L18.617 33.4562M38.0111 49.7017L18.617 33.4562M18.617 33.4562C17.4394 33.5331 16.258 33.493 15.2062 33.3515M18.617 33.4562L15.2062 33.3515M15.2062 33.3515C14.1706 33.2121 13.1933 32.9656 12.4634 32.5893M15.2062 33.3515L12.4634 32.5893M12.4634 32.5893C7.71979 30.1451 5.43098 24.0997 7.25675 18.9985M12.4634 32.5893L7.25675 18.9985M7.25675 18.9985C7.86552 17.2975 8.68221 15.8956 9.8009 14.762M7.25675 18.9985L9.8009 14.762M9.8009 14.762C10.9205 13.6275 12.2988 12.8062 13.9678 12.2052L9.8009 14.762ZM14.43 11.8004L14.43 11.8004C12.3368 12.4361 10.7887 13.2936 9.60235 14.4585C8.41596 15.6234 7.53028 17.1555 6.85642 19.2367L5.90505 18.9287L6.85642 19.2367C4.38835 26.8593 9.98953 34.272 17.9301 33.9399C17.9301 33.9399 17.9301 33.9399 17.9301 33.9399L21.1475 33.8052L21.5774 33.7872L21.886 34.087L30.4893 42.4422L38.6715 50.3884L41.0399 49.6771L43.4669 48.9481L44.2402 46.5348L45.1925 46.8399L44.2402 46.5348C44.4673 45.8261 44.6177 45.3352 44.7016 44.9472C44.7834 44.5688 44.7846 44.3605 44.7587 44.2121C44.7026 43.8905 44.4882 43.5593 43.5628 42.4883L43.5627 42.4883C42.4503 41.2008 41.4282 40.5309 40.7537 40.384L40.7536 40.384C40.4096 40.309 40.0923 40.2318 39.8236 40.1368C39.5591 40.0433 39.2543 39.9036 39.0021 39.655C38.4256 39.0867 38.4904 38.3325 38.5356 37.8899L38.5356 37.8896C38.5406 37.8408 38.5214 37.6359 38.3134 37.2626C38.1198 36.9152 37.8176 36.522 37.4399 36.1386C36.6545 35.3417 35.7305 34.7727 35.0904 34.654L35.0899 34.6539C34.7661 34.5936 34.4598 34.5293 34.1985 34.4434C33.9404 34.3586 33.6299 34.2232 33.3748 33.9633C32.8203 33.3987 32.8982 32.6359 32.9409 32.2167L32.9418 32.2084L32.9418 32.2081C32.9418 32.2083 32.9418 32.2083 32.9418 32.2081C32.9419 32.2048 32.9445 32.1466 32.8998 32.0151C32.8531 31.8782 32.766 31.6941 32.6192 31.4597C32.3239 30.9882 31.8388 30.3946 31.1372 29.6801C30.1288 28.6531 29.3987 27.8947 29.0556 26.913C28.7179 25.9467 28.7879 24.8534 28.8999 23.3169C29.4866 15.267 22.184 9.44528 14.43 11.8004ZM39.5304 37.9915C39.4339 38.9365 39.6113 39.1115 40.9665 39.4069L29.8972 23.3896C29.664 26.5895 29.7524 26.8423 31.8508 28.9795C33.3048 30.4603 34.0106 31.5868 33.9366 32.3099C33.8383 33.2742 33.9941 33.4329 35.2728 33.6708C37.1312 34.0155 39.6734 36.595 39.5304 37.9915ZM16.1285 17.6015L16.1279 17.6015C15.11 17.5919 14.1807 17.9625 13.6014 18.5313C13.0221 19.1002 12.6345 20.0225 12.6255 21.0404L12.6255 21.0411C12.6159 22.0589 12.9865 22.9883 13.5553 23.5676C14.1241 24.1469 15.0465 24.5345 16.0644 24.5435L16.0651 24.5435C17.0829 24.5531 18.0123 24.1825 18.5916 23.6136C19.1709 23.0448 19.5585 22.1224 19.5675 21.1046L19.5675 21.1039C19.5771 20.086 19.2065 19.1567 18.6376 18.5774C18.0688 17.9981 17.1464 17.6105 16.1285 17.6015ZM16.9505 24.1271L16.9503 24.1271C15.3655 24.4716 13.9842 23.7277 13.3005 22.5967C12.6105 21.4552 12.6221 19.8862 13.798 18.7316C14.137 18.3988 14.5869 18.1708 15.0023 18.033C15.4224 17.8937 15.9151 17.8106 16.3846 17.8586C18.1395 18.0379 19.1034 19.4614 19.2452 20.8006C19.3877 22.1463 18.7193 23.7422 16.9505 24.1271Z" stroke="#E8D6AD" stroke-width="2"/>
<path d="M47.5615 7.87818L47.5615 7.87819C44.0925 8.801 40.8316 11.2907 39.1502 14.2842C38.6898 15.1041 38.2406 16.3041 37.9071 17.5394C37.5731 18.7765 37.3682 20 37.3711 20.8636L47.5615 7.87818ZM47.5615 7.87818C48.2944 7.6832 49.667 7.5097 50.5823 7.50069L50.5823 7.50069C57.7598 7.42954 63.6323 12.9052 64.1158 20.1353L64.6147 20.1019M47.5615 7.87818L64.6147 20.1019M64.6147 20.1019L64.1158 20.1353C64.7339 29.3751 55.7514 36.5925 46.9864 33.9289C41.4157 32.2359 37.3913 26.7758 37.3711 20.8636L64.6147 20.1019ZM39.0249 23.2971L38.5373 23.3981C37.1817 16.8491 41.3712 10.2877 47.9159 8.68709L39.0249 23.2971ZM39.0249 23.2971L38.5373 23.3981C39.6232 28.644 43.8317 32.7113 48.9733 33.4427C58.2416 34.7609 65.6295 25.7212 62.5914 16.8154L62.5914 16.8153M39.0249 23.2971L62.5914 16.8153M62.5914 16.8153C60.5342 10.7853 54.05 7.18669 47.9159 8.68708L62.5914 16.8153Z" stroke="#E8D6AD"/>
<path d="M50.4486 30V12H51.7134V30H50.4486ZM46.1996 17.7451C46.1996 16.9346 46.4038 16.2222 46.8122 15.6078C47.2207 14.9935 47.7938 14.5163 48.5316 14.1765C49.2826 13.8366 50.1456 13.6667 51.1205 13.6667C52.0296 13.6667 52.8201 13.8301 53.4921 14.1569C54.1772 14.4706 54.7108 14.9216 55.0929 15.5098C55.4881 16.098 55.7121 16.8039 55.7648 17.6275H53.8478C53.8083 16.8954 53.5448 16.3333 53.0573 15.9412C52.583 15.549 51.9308 15.3529 51.1008 15.3529C50.1917 15.3529 49.4605 15.5621 48.9071 15.9804C48.3669 16.3987 48.0968 16.9673 48.0968 17.6863C48.0968 18.2614 48.2615 18.732 48.5909 19.098C48.9203 19.451 49.4341 19.7124 50.1324 19.8824L52.4842 20.4314C53.6699 20.6928 54.5527 21.1373 55.1324 21.7647C55.7121 22.3791 56.002 23.1765 56.002 24.1569C56.002 25.0065 55.7911 25.7451 55.3695 26.3725C54.9611 27 54.3748 27.4837 53.6106 27.8235C52.8597 28.1634 51.9769 28.3333 50.9624 28.3333C50.0006 28.3333 49.1508 28.1765 48.413 27.8627C47.6884 27.5359 47.1153 27.0784 46.6937 26.4902C46.2852 25.8889 46.0547 25.1895 46.002 24.3922H47.9782C47.9914 25.085 48.2681 25.634 48.8083 26.0392C49.3485 26.4444 50.0665 26.6471 50.9624 26.6471C51.9242 26.6471 52.6884 26.4379 53.2549 26.0196C53.8215 25.5882 54.1047 25.0196 54.1047 24.3137C54.1047 23.1765 53.4328 22.451 52.0889 22.1373L49.7371 21.5882C48.5777 21.3268 47.695 20.8758 47.0889 20.2353C46.496 19.5817 46.1996 18.7516 46.1996 17.7451Z" fill="#E8D6AD"/>
</svg>
