<svg width="64" height="64" viewBox="0 0 64 64" fill="none" xmlns="http://www.w3.org/2000/svg">
<path d="M19.3696 18.8636C19.3667 18.0001 19.5715 16.7765 19.9056 15.5394C20.2391 14.3041 20.6883 13.104 21.1487 12.2841C22.8301 9.2907 26.091 6.80099 29.56 5.87819L29.56 5.87818C30.2929 5.6832 31.6654 5.5097 32.5807 5.50069L32.5807 5.50069C39.7582 5.42954 45.6307 10.9052 46.1142 18.1353C46.7323 27.3751 37.7498 34.5925 28.9848 31.9289C23.4142 30.2359 19.3897 24.7758 19.3696 18.8636ZM19.3696 18.8636L18.8696 18.8653M19.3696 18.8636L18.8696 18.8653M18.8696 18.8653C18.8634 17.0119 19.7368 13.7773 20.7127 12.0393L32.5758 5.00071C40.0219 4.9269 46.1121 10.6108 46.6131 18.1019C47.2541 27.6832 37.9463 35.1748 28.8395 32.4073C23.0548 30.6493 18.8904 24.9929 18.8696 18.8653ZM21.0253 21.2967L20.5357 21.3981C19.1802 14.8491 23.3696 8.28771 29.9144 6.68709L21.0253 21.2967ZM21.0253 21.2967L20.5357 21.3981C21.6216 26.644 25.8301 30.7113 30.9717 31.4427C40.2401 32.7609 47.6279 23.7212 44.5899 14.8154L44.1167 14.9768M21.0253 21.2967L44.1167 14.9768M44.1167 14.9768L44.5899 14.8153C42.5326 8.78532 36.0484 5.18669 29.9144 6.68708L44.1167 14.9768ZM20.447 38.0368L20.4471 38.0368C22.8541 36.8432 24.2846 36.7122 32.4794 36.7122C36.6868 36.7122 38.949 36.7248 40.1471 36.9364C40.7431 37.0417 41.2158 37.2162 41.5001 37.5914C41.7787 37.9589 41.7862 38.412 41.7862 38.7678C41.7862 39.1282 41.7861 39.5622 41.5736 39.9294C41.3424 40.329 40.932 40.5487 40.3975 40.7017C39.8611 40.8552 39.0983 40.9692 38.0288 41.082C36.952 41.1956 35.531 41.3109 33.6628 41.4596M20.447 38.0368L56.9229 35.2299L57.3422 35.5023C57.3422 35.5023 57.3422 35.5023 57.3422 35.5023C57.5118 35.2414 57.6638 34.9669 57.6735 34.63C57.6828 34.3088 57.5589 34.0069 57.4131 33.6985L57.413 33.6983C57.2322 33.3162 56.9863 32.9193 56.537 32.7231C56.0939 32.5296 55.5778 32.585 54.9916 32.7667C53.8246 33.1284 51.9417 34.1403 48.73 35.9518C46.3126 37.3152 44.8193 38.1831 43.8885 38.7988C42.973 39.4043 42.5152 39.8178 42.2849 40.2983C42.1261 40.6296 41.9812 40.8446 41.7827 41.0134C41.5823 41.1839 41.2897 41.3387 40.7875 41.4796C39.7578 41.7686 38.0215 41.9562 34.8341 42.2217C31.7918 42.4749 30.2299 42.5837 29.4203 42.5105C29.2254 42.4928 29.0993 42.4663 29.0187 42.439C28.9544 42.4172 28.9318 42.3992 28.9274 42.3953M20.447 38.0368C19.6168 38.4486 18.4284 39.2414 17.4571 39.9722C16.9691 40.3394 16.5235 40.7002 16.1957 41.0001C16.0331 41.1488 15.8892 41.2918 15.7821 41.4193C15.7291 41.4824 15.6755 41.5529 15.6326 41.6268C15.5983 41.686 15.5304 41.8137 15.5304 41.9751C15.5304 42.0569 15.5503 42.1219 15.5563 42.1412L15.5563 42.1413C15.5655 42.1711 15.576 42.1979 15.5845 42.2182C15.6018 42.2594 15.6234 42.3039 15.6456 42.3472C15.6908 42.4354 15.7539 42.5488 15.8303 42.681C15.984 42.9471 16.2039 43.3103 16.4724 43.7429C17.0101 44.6091 17.7503 45.7655 18.5635 47.0038L21.5146 51.4973L21.777 51.897L22.188 51.6527L25.0999 49.922L27.8906 48.2632L20.447 38.0368ZM33.6628 41.4596L33.6231 40.9612L33.6628 41.4596C33.6628 41.4596 33.6628 41.4596 33.6628 41.4596ZM33.6628 41.4596C32.374 41.5622 31.1746 41.6736 30.2812 41.7703C29.8339 41.8188 29.467 41.8631 29.2052 41.9005C29.0938 41.9163 29.0054 41.9304 28.9399 41.9424M28.9399 41.9424C28.9516 41.914 28.9619 41.8973 28.9666 41.8909C28.9729 41.8821 28.9624 41.9003 28.9269 41.9225C28.9269 41.9226 28.9268 41.9226 28.9268 41.9226C28.9268 41.9226 28.9267 41.9226 28.9267 41.9227C28.8911 41.9448 28.8596 41.9572 28.845 41.9621M28.9399 41.9424C28.928 41.9445 28.9169 41.9466 28.9066 41.9487C28.8733 41.9552 28.8539 41.9597 28.845 41.9621M28.9399 41.9424C28.9399 41.9425 28.9398 41.9425 28.9398 41.9426C28.9154 42.002 28.9006 42.074 28.9006 42.1341C28.9006 42.3285 28.9217 42.3845 28.9274 42.3953M28.845 41.9621C28.8447 41.9622 28.8445 41.9623 28.8442 41.9623C28.833 41.9654 28.8347 41.9656 28.845 41.9621ZM28.9274 42.3953C28.9272 42.3951 28.9271 42.395 28.927 42.3949M28.9274 42.3953C28.9275 42.3954 28.9275 42.3955 28.9276 42.3956M28.927 42.3949C28.9269 42.3948 28.9269 42.3948 28.9269 42.3948C28.9265 42.3944 28.9265 42.3945 28.927 42.3949ZM28.927 42.3949C28.9272 42.3951 28.9274 42.3953 28.9276 42.3956M28.9276 42.3956C28.9283 42.397 28.9288 42.3975 28.9288 42.3975C28.9289 42.3974 28.9285 42.3967 28.9276 42.3956ZM9.39893 40.7327L9.39899 40.7327C10.059 40.3617 10.6746 40.0235 11.1353 39.7771C11.3652 39.6542 11.5592 39.5528 11.7017 39.4813C11.7724 39.4458 11.8348 39.4155 11.8846 39.3931C11.9089 39.3822 11.9363 39.3703 11.9631 39.3602C11.9763 39.3553 11.9955 39.3484 12.0178 39.342L12.0187 39.3418C12.0325 39.3378 12.0859 39.3226 12.1537 39.3211C12.2657 39.3186 12.3484 39.3543 12.3809 39.3697C12.4201 39.3883 12.449 39.4082 12.4648 39.4197C12.4965 39.4429 12.5196 39.4654 12.5303 39.476C12.5539 39.4996 12.5743 39.5237 12.5878 39.5401C12.6172 39.5757 12.6518 39.6214 12.6886 39.6716C12.7639 39.774 12.8673 39.921 12.994 40.105C13.2484 40.4742 13.6063 41.0061 14.0407 41.66C14.9099 42.9683 16.0903 44.7721 17.3721 46.7558L22.0308 53.9649L22.3252 54.4205L21.8472 54.6769L19.277 56.0554C18.5608 56.4396 17.8829 56.7679 17.3652 56.9873C17.1085 57.0961 16.8791 57.1834 16.699 57.2364C16.6117 57.2621 16.5154 57.286 16.4242 57.2955C16.3797 57.3002 16.3137 57.304 16.2402 57.293C16.1767 57.2835 16.03 57.2516 15.9107 57.1194L9.39893 40.7327ZM9.39893 40.7327C8.72995 41.1089 8.12811 41.4874 7.69591 41.7971C7.48211 41.9503 7.29676 42.0959 7.16382 42.2223C7.09967 42.2833 7.02925 42.3571 6.9746 42.4381C6.94749 42.4783 6.91103 42.5394 6.8867 42.6167C6.86293 42.6922 6.83707 42.8282 6.89497 42.9808L6.89513 42.9812M9.39893 40.7327L6.89513 42.9812M6.89513 42.9812C6.91464 43.0325 6.94682 43.0892 6.96141 43.1149M6.89513 42.9812L6.96141 43.1149M6.96141 43.1149L6.96324 43.1181M6.96141 43.1149L6.96324 43.1181M6.96324 43.1181C6.98583 43.158 7.01556 43.2086 7.05096 43.2678M6.96324 43.1181L7.05096 43.2678M7.05096 43.2678C7.12209 43.3868 7.22153 43.5495 7.3445 43.7485M7.05096 43.2678L7.3445 43.7485M7.3445 43.7485C7.59074 44.147 7.93526 44.6975 8.34523 45.3484M7.3445 43.7485L8.34523 45.3484M8.34523 45.3484C9.16538 46.6506 10.2498 48.3587 11.3391 50.0661M8.34523 45.3484L11.3391 50.0661M11.3391 50.0661C12.4284 51.7736 13.523 53.4811 14.3637 54.7822M11.3391 50.0661L14.3637 54.7822M14.3637 54.7822C14.7839 55.4326 15.1413 55.9823 15.4029 56.3799M14.3637 54.7822L15.4029 56.3799M15.4029 56.3799C15.5336 56.5785 15.6414 56.7406 15.7215 56.8588M15.4029 56.3799L15.7215 56.8588M15.7215 56.8588C15.7885 56.9575 15.863 57.0665 15.9106 57.1193L15.7215 56.8588ZM41.8415 36.8337L41.8416 36.8337C42.0891 37.1062 42.3266 37.3561 42.5109 37.5399C42.6023 37.631 42.6852 37.7106 42.7521 37.7697C42.7844 37.7983 42.8209 37.8293 42.857 37.8557C42.8743 37.8683 42.9017 37.8875 42.9351 37.9058C42.9355 37.906 42.936 37.9063 42.9366 37.9067C42.9524 37.9155 43.053 37.9721 43.1889 37.9721C43.2482 37.9721 43.2938 37.9613 43.3076 37.958C43.3276 37.9532 43.3436 37.9481 43.3528 37.9449C43.3714 37.9387 43.3866 37.9324 43.3949 37.9289C43.4126 37.9215 43.4298 37.9133 43.4433 37.9069C43.4716 37.8932 43.5073 37.875 43.5476 37.8541C43.6293 37.8117 43.7441 37.7504 43.8869 37.6732C44.1732 37.5185 44.5799 37.2954 45.0763 37.0209C46.0696 36.4718 47.4262 35.7148 48.9067 34.8824L48.6617 34.4465L48.9067 34.8824C50.3843 34.0516 51.799 33.2743 52.8876 32.6914C53.4321 32.3999 53.8931 32.158 54.2387 31.9827C54.4117 31.8949 54.5533 31.8251 54.6608 31.7746C54.7146 31.7493 54.7575 31.73 54.7901 31.716C54.826 31.7007 54.8387 31.6966 54.8361 31.6974L54.8528 31.6922C55.3193 31.5468 55.4184 31.5159 55.5369 31.5174C55.6696 31.519 55.8227 31.5619 56.3609 31.7127L56.4043 31.7249L56.4044 31.7249C57.3588 31.9921 58.2702 33.0082 58.4694 34.079L58.9609 33.9876L58.4694 34.079C58.5478 34.5009 58.474 35.0563 58.2648 35.5957C58.0553 36.1357 57.7375 36.5893 57.4014 36.8384L57.4014 36.8384C56.2031 37.7268 51.8487 40.5217 47.6284 43.1617C45.5235 44.4784 43.4603 45.7515 41.8533 46.7216C41.0495 47.2068 40.3618 47.615 39.8409 47.9147C39.2998 48.2259 38.9817 48.3943 38.8867 48.4302C38.198 48.69 36.9636 48.9792 35.837 49.1749C35.2776 49.2721 34.7599 49.3435 34.3648 49.3766C34.166 49.3932 34.0091 49.3992 33.8982 49.3959C33.8542 49.3946 33.8239 49.392 33.805 49.3896C33.7621 49.3696 33.7256 49.3586 33.7079 49.3534C33.6727 49.3431 33.6372 49.3352 33.6056 49.329C33.5421 49.3164 33.4668 49.3055 33.3862 49.2956C33.2234 49.2756 33.0097 49.2566 32.7627 49.2392C32.2673 49.2043 31.6173 49.1745 30.9308 49.1579L30.9307 49.1579L28.4559 49.0983L28.3158 49.095L28.1943 49.1649L25.7889 50.5502C25.6147 50.6505 25.4496 50.7454 25.2933 50.8352C24.715 51.1674 24.2575 51.4302 23.906 51.6439C23.4733 51.9068 23.1424 52.1288 22.939 52.3485C22.83 52.4663 22.7317 52.61 22.685 52.7872C22.6365 52.9715 22.6567 53.1418 22.7025 53.2872C22.745 53.4219 22.813 53.5457 22.8736 53.6478C22.9073 53.7046 22.9512 53.7748 22.9949 53.8446C23.0243 53.8916 23.0537 53.9385 23.0797 53.981L23.0798 53.9811C23.2024 54.1812 23.2989 54.3969 23.3548 54.5756C23.3747 54.6392 23.3877 54.6926 23.3954 54.7347C23.3535 54.7691 23.297 54.812 23.2243 54.8636C23.0269 55.0035 22.7458 55.1815 22.4011 55.3859C21.7139 55.7936 20.8045 56.2884 19.8765 56.7651C18.9486 57.2418 18.0101 57.6964 17.2653 58.0244C16.8919 58.1888 16.5745 58.3182 16.3349 58.4025C16.2223 58.4421 16.1345 58.469 16.0703 58.4851C16.0136 58.437 15.9323 58.3563 15.8214 58.2297C15.5861 57.9607 15.2603 57.5333 14.8134 56.8992C13.9219 55.6342 12.5837 53.5967 10.5836 50.4793C9.01053 48.0275 7.71175 45.9412 6.81306 44.4323C6.36322 43.6771 6.01655 43.0713 5.78643 42.6387C5.68331 42.4449 5.60696 42.292 5.55589 42.1793C5.58413 42.1538 5.61767 42.1249 5.65697 42.0924C5.84309 41.9387 6.11546 41.7414 6.45497 41.5132C7.13121 41.0589 8.03684 40.5071 8.96244 39.9786C9.88804 39.45 10.824 38.9501 11.56 38.598C11.9295 38.4213 12.2387 38.2866 12.4665 38.2039C12.5424 38.1764 12.6035 38.1568 12.651 38.1435C12.6537 38.1461 12.6565 38.1488 12.6594 38.1515C12.7274 38.2162 12.8143 38.3101 12.9146 38.43C13.1145 38.6688 13.3467 38.9855 13.5589 39.319L13.5589 39.319L14.3684 40.591L14.6655 41.0579L15.0999 40.7151L16.8854 39.3064L16.8854 39.3064C18.9393 37.6856 20.6535 36.8048 22.7714 36.2638L22.7714 36.2638C24.0112 35.9471 25.6616 35.885 32.7786 35.9477L41.1033 36.0209L41.8415 36.8337ZM23.4042 54.815C23.4042 54.8148 23.4043 54.8139 23.4044 54.8125L23.4042 54.815ZM16.123 58.5251C16.1243 58.5258 16.1249 58.5262 16.1249 58.5262C16.1249 58.5262 16.1243 58.5259 16.123 58.5251ZM5.49058 42.0138C5.49085 42.014 5.49216 42.0184 5.49372 42.0262C5.49109 42.0175 5.49031 42.0136 5.49058 42.0138Z" stroke="#E8D6AD"/>
<path d="M32.4466 28V10H33.7115V28H32.4466ZM28.1976 15.7451C28.1976 14.9346 28.4018 14.2222 28.8103 13.6078C29.2187 12.9935 29.7918 12.5163 30.5296 12.1765C31.2806 11.8366 32.1436 11.6667 33.1186 11.6667C34.0277 11.6667 34.8182 11.8301 35.4901 12.1569C36.1752 12.4706 36.7088 12.9216 37.0909 13.5098C37.4862 14.098 37.7101 14.8039 37.7628 15.6275H35.8458C35.8063 14.8954 35.5428 14.3333 35.0553 13.9412C34.581 13.549 33.9289 13.3529 33.0988 13.3529C32.1897 13.3529 31.4585 13.5621 30.9051 13.9804C30.365 14.3987 30.0949 14.9673 30.0949 15.6863C30.0949 16.2614 30.2596 16.732 30.5889 17.098C30.9183 17.451 31.4321 17.7124 32.1304 17.8824L34.4822 18.4314C35.668 18.6928 36.5507 19.1373 37.1304 19.7647C37.7101 20.3791 38 21.1765 38 22.1569C38 23.0065 37.7892 23.7451 37.3676 24.3725C36.9592 25 36.3729 25.4837 35.6087 25.8235C34.8577 26.1634 33.975 26.3333 32.9605 26.3333C31.9987 26.3333 31.1489 26.1765 30.4111 25.8627C29.6864 25.5359 29.1133 25.0784 28.6917 24.4902C28.2833 23.8889 28.0527 23.1895 28 22.3922H29.9763C29.9895 23.085 30.2661 23.634 30.8063 24.0392C31.3465 24.4444 32.0646 24.6471 32.9605 24.6471C33.9223 24.6471 34.6864 24.4379 35.253 24.0196C35.8195 23.5882 36.1028 23.0196 36.1028 22.3137C36.1028 21.1765 35.4308 20.451 34.087 20.1373L31.7352 19.5882C30.5758 19.3268 29.693 18.8758 29.087 18.2353C28.4941 17.5817 28.1976 16.7516 28.1976 15.7451Z" fill="#E8D6AD"/>
</svg>
