<svg width="65" height="64" viewBox="0 0 65 64" fill="none" xmlns="http://www.w3.org/2000/svg">
<path d="M13.8735 25.5552L13.8735 25.5553C13.9483 25.9958 13.9806 26.3623 13.9398 26.7327C13.899 27.1043 13.7881 27.448 13.6198 27.8478L13.8735 25.5552ZM13.8735 25.5552C13.8461 25.3943 13.8301 25.2213 13.8266 25.0768C13.826 25.0499 13.8258 25.0249 13.826 25.0018C13.9318 24.9504 14.0872 24.8813 14.3044 24.7907C14.8115 24.5793 15.6162 24.2672 16.8176 23.8177C19.2181 22.9195 23.1784 21.4818 29.4524 19.2227L44.9963 13.6257L45.112 13.7359C45.2503 13.8678 45.5118 14.2198 45.6643 14.4986L45.6643 14.4987C45.8896 14.9105 46.3163 15.2873 46.7532 15.5654C47.1948 15.8464 47.7241 16.0757 48.2098 16.1338L48.21 16.1338C48.5417 16.1734 49.1008 16.1362 49.4868 16.0602L49.391 15.5693L49.4868 16.0602C49.5576 16.0462 49.6141 16.0343 49.663 16.0239C49.7343 16.0088 49.7895 15.9971 49.8493 15.9877C49.9338 15.9743 49.9628 15.9779 49.9688 15.979C49.971 15.9802 49.9792 15.9853 49.9936 15.9989C50.0293 16.0325 50.0884 16.1042 50.1727 16.2526C50.3436 16.5536 50.5581 17.0602 50.8788 17.9107C51.1383 18.5987 51.4592 19.4896 51.8753 20.6444C51.9687 20.9038 52.0669 21.1764 52.1704 21.4631C52.2738 21.7498 52.3722 22.0224 52.4659 22.2817C52.8829 23.4362 53.2045 24.3267 53.4441 25.022C53.7402 25.8814 53.8985 26.4084 53.9592 26.7494C53.9891 26.9175 53.9894 27.0106 53.9834 27.0594C53.981 27.079 53.978 27.0882 53.9771 27.0905C53.9731 27.0953 53.9532 27.1167 53.8797 27.1606C53.8277 27.1917 53.7778 27.2182 53.7134 27.2523C53.6692 27.2758 53.6182 27.3029 53.5549 27.3375L53.7945 27.7763L53.5549 27.3375C53.2098 27.5268 52.7564 27.8571 52.5267 28.1005L52.5266 28.1006C52.1904 28.4571 51.93 28.973 51.7699 29.4724C51.6115 29.9665 51.524 30.53 51.6136 30.991L51.6136 30.991M13.8735 25.5552L51.6136 30.991M11.3204 30.0447L11.3203 30.0449L11.2086 30.2042L13.1589 35.6106C13.2628 35.8986 13.3615 36.1725 13.4553 36.433C13.8717 37.5889 14.193 38.4807 14.4528 39.1695C14.774 40.0216 14.9889 40.5292 15.16 40.8308C15.2444 40.9796 15.3037 41.0515 15.3395 41.0853C15.3539 41.0988 15.3621 41.104 15.3643 41.1052C15.3704 41.1063 15.3994 41.1099 15.4837 41.0966C15.5434 41.0871 15.5986 41.0754 15.6697 41.0603C15.7187 41.05 15.7752 41.038 15.8462 41.024L15.8462 41.024C16.2322 40.948 16.7913 40.9107 17.123 40.9503L17.1232 40.9503C17.609 41.0085 18.1382 41.2378 18.5798 41.5188C19.0167 41.7968 19.4434 42.1737 19.6687 42.5855L19.6687 42.5855C19.8212 42.8644 20.0827 43.2163 20.221 43.3482L20.3361 43.4579L35.9967 37.7739L51.6573 32.0898L51.6758 31.9317L11.3204 30.0447ZM11.3204 30.0447C11.3467 30.0072 11.4207 29.9311 11.54 29.8456C11.6547 29.7633 11.7744 29.6987 11.8652 29.6658C12.6684 29.3743 13.2473 28.733 13.6198 27.8478L11.3204 30.0447ZM51.6136 30.991C51.6743 31.303 51.6979 31.7411 51.6758 31.9314L51.6136 30.991ZM25.9075 28.5158L25.9075 28.5157C25.9464 26.0724 27.3426 23.7003 29.4238 22.6012L25.9075 28.5158ZM25.9075 28.5158C25.8846 29.9581 26.574 31.824 27.5379 32.9599C28.0205 33.5286 28.759 34.0634 29.5294 34.4713C30.2996 34.8792 31.1553 35.1886 31.8934 35.2657L31.8934 35.2657M25.9075 28.5158L31.8934 35.2657M31.8934 35.2657C33.9501 35.4805 36.1174 34.7042 37.5318 33.237L37.5318 33.237M31.8934 35.2657L37.5318 33.237M37.5318 33.237C38.058 32.6912 38.5228 31.902 38.8574 31.0912C39.1918 30.2809 39.4178 29.3967 39.4259 28.6452C39.4425 27.1188 38.7836 25.2892 37.7994 24.1294C37.3662 23.6189 36.6935 23.1154 35.9924 22.715C35.2905 22.3142 34.5091 21.9877 33.8372 21.8648L33.8371 21.8648M37.5318 33.237L33.8371 21.8648M33.8371 21.8648C32.4594 21.613 30.7393 21.9065 29.4238 22.6012L33.8371 21.8648ZM30.474 25.891L30.4739 25.891C30.1606 26.1242 29.9761 26.3706 29.8826 26.625C29.7892 26.8791 29.7714 27.1824 29.8604 27.5553C29.8604 27.5553 29.8604 27.5553 29.8604 27.5553L29.3743 27.6722L30.474 25.891ZM30.474 25.891C30.682 25.7361 30.8838 25.563 31.0035 25.3494C31.1501 25.088 31.1455 24.8245 31.0586 24.5836C31.0484 24.5554 31.0378 24.5008 31.0376 24.4379C31.0375 24.4086 31.0398 24.385 31.0425 24.369C31.0428 24.3674 31.0431 24.3659 31.0433 24.3646C31.045 24.3622 31.0472 24.3591 31.05 24.3554C31.0596 24.343 31.0724 24.3286 31.0876 24.3144C31.1028 24.3001 31.1169 24.2892 31.1276 24.2821C31.1305 24.2802 31.1328 24.2788 31.1344 24.2779C31.1622 24.2692 31.196 24.2702 31.2383 24.2938C31.286 24.3204 31.3444 24.3782 31.3802 24.4776C31.4627 24.7061 31.614 24.9024 31.8572 25.0219C32.0729 25.1279 32.317 25.1508 32.5486 25.148C33.0235 25.1424 33.3961 25.2839 33.6001 25.4489C33.7968 25.608 33.7764 25.713 33.747 25.776C33.7289 25.8147 33.7115 25.8314 33.703 25.8381C33.695 25.8443 33.6865 25.8484 33.6736 25.8504C33.6473 25.8546 33.5619 25.8532 33.4328 25.7561C32.7052 25.2087 31.7264 25.2899 30.9322 25.7994C30.7503 25.916 30.5884 26.0314 30.4566 26.1506C30.326 26.2687 30.2014 26.4113 30.1245 26.5885C29.9453 27.0018 30.1114 27.37 30.2924 27.6394L30.2925 27.6396C30.3711 27.7564 30.4761 27.8796 30.6363 27.9759C30.7911 28.0689 30.9618 28.1154 31.1403 28.1406C31.4765 28.1882 31.9702 28.1749 32.7089 28.1394L32.7089 28.1394C33.636 28.0948 34.2049 28.1353 34.5941 28.2602C34.9454 28.3728 35.1717 28.5611 35.3919 28.9108L35.3919 28.9108C35.5964 29.2356 35.6519 29.6953 35.5359 30.1626C35.4203 30.6285 35.1499 31.0357 34.7932 31.2618C34.6054 31.3808 34.4075 31.538 34.2948 31.7755C34.1752 32.0273 34.1925 32.2792 34.2423 32.4948L34.2423 32.4948C34.2738 32.631 34.2522 32.7073 34.2374 32.739C34.2224 32.7709 34.2052 32.7801 34.1964 32.7833C34.1877 32.7864 34.1685 32.7904 34.1367 32.7755C34.105 32.7607 34.0399 32.7159 33.9772 32.591L33.9772 32.591C33.8782 32.394 33.7316 32.1917 33.4837 32.0744C33.2474 31.9627 32.9976 31.9666 32.7791 31.9955C32.3886 32.0471 31.9061 31.9196 31.5292 31.6878C31.3442 31.5741 31.2102 31.4504 31.132 31.3412C31.0528 31.2307 31.0549 31.172 31.0567 31.1594L31.0567 31.1594M30.474 25.891L31.0567 31.1594M31.4544 31.183C31.7629 31.4693 32.0964 31.6747 32.5158 31.7298C32.9171 31.7824 33.3305 31.6876 33.78 31.5244C34.2707 31.3463 34.6887 31.0867 34.947 30.7253C35.2223 30.3401 35.2827 29.8834 35.1191 29.43C35.0476 29.2316 34.9407 29.0373 34.7667 28.877C34.5917 28.7158 34.3811 28.6189 34.1494 28.5632C33.7157 28.4591 33.1275 28.4841 32.358 28.5654C31.8966 28.6142 31.5987 28.6209 31.3496 28.5892C31.1091 28.5585 30.8898 28.4889 30.5924 28.3507L31.4544 31.183ZM31.4544 31.183C31.3081 31.0474 31.183 31.0413 31.1332 31.0523M31.4544 31.183L31.1332 31.0523M31.0567 31.1594C31.0646 31.1051 31.0817 31.0828 31.0887 31.0752M31.0567 31.1594L31.0887 31.0752M31.0887 31.0752C31.0962 31.067 31.1088 31.0577 31.1332 31.0523M31.0887 31.0752L31.1332 31.0523M14.5466 48.3213L14.7162 48.7916L15.1862 48.621L37.0474 40.6865L58.9085 32.7519L59.3785 32.5814L59.2089 32.111L54.9977 20.4369L50.7864 8.76287L50.6168 8.29254L50.1468 8.46313L28.2856 16.3977L6.42448 24.3322L5.95448 24.5028L6.12415 24.9731L10.3354 36.6472L14.5466 48.3213ZM14.3682 25.5975L14.3681 25.5984C14.3524 25.6896 14.3506 25.8525 14.3505 25.9847C14.3504 26.1411 14.3538 26.3341 14.3606 26.5274C14.3778 27.0211 14.1881 27.6888 13.8485 28.3274C13.5085 28.9668 13.0641 29.491 12.6527 29.7434L12.6526 29.7434L12.1951 30.0242L11.8473 30.2376L11.9857 30.6213L13.7112 35.4045L15.4367 40.1878L15.5544 40.5141L15.901 40.5175L16.8301 40.5268L16.8302 40.5268C17.315 40.5316 17.9292 40.7062 18.5066 40.9988C19.0866 41.2927 19.5625 41.6715 19.8096 42.0272L19.8096 42.0272L20.2392 42.6456L20.4582 42.9609L20.8192 42.8299L35.8523 37.3736L50.8854 31.9173L51.2464 31.7863L51.2136 31.4034L51.1492 30.6525L51.1492 30.6524C51.1121 30.2204 51.2361 29.6238 51.4944 29.0257C51.7515 28.4304 52.112 27.9019 52.4816 27.587L53.1897 26.9837L53.4515 26.7607L53.3377 26.4364L51.6492 21.6253L49.9606 16.8143L49.8324 16.4489L49.4468 16.4823L48.6252 16.5536C48.199 16.5905 47.5693 16.4401 46.9423 16.1418C46.3164 15.844 45.7939 15.4465 45.5416 15.0832L45.0938 14.4386L44.8748 14.1233L44.5138 14.2543L29.6147 19.662C25.5165 21.1494 21.7877 22.5179 19.0812 23.5245C17.7282 24.0277 16.6294 24.4409 15.8674 24.7335C15.4869 24.8797 15.1878 24.9967 14.9823 25.0801C14.8804 25.1215 14.7968 25.1566 14.7364 25.1837C14.7075 25.1967 14.6755 25.2116 14.647 25.2268C14.6345 25.2334 14.6095 25.2471 14.5822 25.2659C14.5697 25.2746 14.5422 25.2943 14.5121 25.3238C14.5118 25.3242 14.5114 25.3246 14.5108 25.3251C14.4955 25.3398 14.3965 25.4355 14.3682 25.5975ZM36.6913 22.6146L36.9791 22.2052L36.6913 22.6146C41.2925 25.8536 40.743 32.6032 35.6783 35.0655C31.5419 37.0767 26.3139 34.3242 25.6122 29.7574C25.1581 26.8015 26.2964 24.1872 28.7575 22.5238C31.1076 20.9354 34.3557 20.9705 36.6913 22.6146ZM9.85988 36.8198C7.83138 31.1965 6.70149 28.0434 6.09605 26.2581C5.79233 25.3625 5.62572 24.826 5.5433 24.4989C5.52252 24.4164 5.50837 24.3522 5.49892 24.3025C5.59489 24.2518 5.74136 24.1825 5.96148 24.0875C6.5046 23.8531 7.43515 23.4883 9.01297 22.8963C12.1644 21.714 17.8608 19.6395 28.1128 15.9185C38.3648 12.1975 44.0656 10.1354 47.2416 9.02118C48.8318 8.46332 49.7796 8.1464 50.3465 7.97789C50.5762 7.9096 50.733 7.86887 50.8391 7.84619C50.8635 7.89044 50.8936 7.94891 50.9303 8.02563C51.0756 8.32984 51.2898 8.8491 51.6278 9.73227C52.3014 11.4928 53.4446 14.6411 55.4731 20.2644C57.5016 25.8877 58.6315 29.0408 59.237 30.8261C59.5407 31.7217 59.7073 32.2582 59.7897 32.5852C59.8105 32.6677 59.8246 32.732 59.8341 32.7817C59.7381 32.8323 59.5916 32.9017 59.3715 32.9967C58.8284 33.231 57.8979 33.5959 56.32 34.1878C53.1686 35.3701 47.4722 37.4447 37.2202 41.1656C26.9682 44.8866 21.2674 46.9488 18.0914 48.063C16.5013 48.6209 15.5534 48.9378 14.9865 49.1063C14.7568 49.1746 14.6 49.2153 14.4939 49.238C14.4695 49.1937 14.4394 49.1353 14.4027 49.0585C14.2574 48.7543 14.0432 48.2351 13.7052 47.3519C13.0316 45.5914 11.8884 42.4431 9.85988 36.8198ZM5.48179 24.1711C5.48182 24.1712 5.48183 24.1723 5.4817 24.1743C5.48169 24.1721 5.48175 24.1711 5.48179 24.1711ZM50.7684 7.73425C50.7684 7.7342 50.7691 7.73494 50.7705 7.73662C50.7691 7.73514 50.7684 7.7343 50.7684 7.73425ZM59.8512 32.913C59.8512 32.9131 59.8511 32.9119 59.8513 32.9095C59.8513 32.9118 59.8513 32.913 59.8512 32.913ZM14.5625 49.3475C14.5639 49.349 14.5646 49.3499 14.5646 49.3499C14.5646 49.35 14.5639 49.3492 14.5625 49.3475Z" stroke="#E8D6AD"/>
<path fill-rule="evenodd" clip-rule="evenodd" d="M47.3685 47.285C47.7086 46.9144 47.8787 46.4421 47.8787 45.8683C47.8787 45.2825 47.7143 44.8103 47.3855 44.4516C47.0567 44.081 46.6201 43.8957 46.0759 43.8957C45.5543 43.8957 45.1234 44.081 44.7833 44.4516C44.4545 44.8103 44.2901 45.2825 44.2901 45.8683C44.2901 46.4421 44.4545 46.9144 44.7833 47.285C45.1234 47.6436 45.5543 47.8229 46.0759 47.8229C46.6088 47.8229 47.0396 47.6436 47.3685 47.285ZM43.3716 44.1468C43.1109 44.6489 42.9805 45.2227 42.9805 45.8683C42.9805 46.5019 43.1109 47.0698 43.3716 47.5719C43.6438 48.074 44.0123 48.4685 44.4771 48.7554C44.942 49.0304 45.4749 49.1679 46.0759 49.1679C46.6882 49.1679 47.2267 49.0304 47.6916 48.7554C48.1565 48.4685 48.5193 48.074 48.7801 47.5719C49.0522 47.0698 49.1883 46.5019 49.1883 45.8683C49.1883 45.2227 49.0522 44.6489 48.7801 44.1468C48.5193 43.6447 48.1565 43.2561 47.6916 42.9812C47.2267 42.6942 46.6882 42.5508 46.0759 42.5508C45.4749 42.5508 44.942 42.6942 44.4771 42.9812C44.0123 43.2561 43.6438 43.6447 43.3716 44.1468ZM53.015 51.2839C52.6862 51.6426 52.5218 52.1148 52.5218 52.7006C52.5218 53.2744 52.6862 53.7466 53.015 54.1172C53.3438 54.4759 53.7747 54.6552 54.3076 54.6552C54.8405 54.6552 55.2714 54.4759 55.6002 54.1172C55.929 53.7466 56.0934 53.2744 56.0934 52.7006C56.0934 52.1148 55.929 51.6426 55.6002 51.2839C55.2714 50.9133 54.8405 50.728 54.3076 50.728C53.7747 50.728 53.3438 50.9133 53.015 51.2839ZM52.7089 55.5877C52.244 55.3008 51.8755 54.9063 51.6034 54.4042C51.3313 53.9021 51.1952 53.3342 51.1952 52.7006C51.1952 52.055 51.3313 51.4871 51.6034 50.997C51.8755 50.4949 52.244 50.1063 52.7089 49.8314C53.1738 49.5445 53.7067 49.401 54.3076 49.401C54.9199 49.401 55.4585 49.5445 55.9234 49.8314C56.3882 50.1063 56.7511 50.4949 57.0119 50.997C57.284 51.4871 57.42 52.055 57.42 52.7006C57.42 53.3342 57.284 53.9021 57.0119 54.4042C56.7511 54.9063 56.3882 55.3008 55.9234 55.5877C55.4585 55.8627 54.9199 56.0002 54.3076 56.0002C53.7067 56.0002 53.1738 55.8627 52.7089 55.5877ZM55.6682 42.8198H54.0355L44.6983 55.767H46.331L55.6682 42.8198Z" fill="#E8D6AD"/>
</svg>
