<svg width="136" height="136" viewBox="0 0 136 136" fill="none" xmlns="http://www.w3.org/2000/svg">
<rect width="136" height="136" fill="#F8FBFF"/>
<g clip-path="url(#clip0_229_2978)">
<path d="M92.7565 67.1351C91.3637 66.5747 90.1179 66.3476 89.2367 66.2466C90.1888 65.7014 91.6878 64.6918 92.9489 62.9957C97.36 57.0895 95.9116 46.9431 90.4673 42.8239C89.5051 42.097 88.0414 41.2691 82.2578 40.5927C79.9738 40.3251 77.1427 40.098 73.8458 40.0626V34H62.8762V40.5977H29V95H41.4029V72.5061L41.8688 72.0417H57.5939V61.2238H41.4029V51.4156H62.8711V95H73.8407L85.0433 94.995C90.832 94.4851 96.2864 91.9207 98.9908 86.7718C101.604 81.8348 101.634 76.176 98.9908 72.2032C98.0235 70.7494 95.9825 68.4425 92.7565 67.1401V67.1351ZM74.3522 50.1788C78.3683 50.0375 83.5746 50.4767 83.6759 55.5852C83.7873 61.1683 78.9507 62.0467 74.3522 61.9255V50.1788ZM85.1091 83.9297C84.2684 84.48 81.6349 85.4139 80.7081 85.4139H74.3522V72.8948C74.6257 72.4506 74.9701 72.4708 75.4208 72.4153C77.5935 72.1578 83.1593 72.8393 84.9977 74.0256C88.1579 76.065 88.3605 81.7894 85.1091 83.9247V83.9297Z" fill="black"/>
<path d="M108.542 79.8357C103.134 80.4768 99.9987 86.5193 102.835 91.2392C105.747 96.0852 112.523 96.2821 115.699 91.6077C119.32 86.277 114.888 79.0836 108.542 79.8357Z" fill="black"/>
</g>
<defs>
<clipPath id="clip0_229_2978">
<rect width="88" height="61" fill="white" transform="translate(29 34)"/>
</clipPath>
</defs>
</svg>
