<svg width="47" height="35" viewBox="0 0 47 35" fill="none" xmlns="http://www.w3.org/2000/svg">
<path d="M3.82218 15.3889C3.82218 15.4579 3.78465 15.4915 3.7429 15.5426C3.72603 15.5636 3.70917 15.5847 3.69231 15.6057C3.68368 15.6164 3.67505 15.6271 3.66616 15.6381C3.44341 15.9146 3.22725 16.1969 3.02517 16.4889C2.99514 16.5322 2.96486 16.5752 2.93455 16.6182C2.79604 16.8155 2.66267 17.0148 2.53708 17.2205C2.52884 17.234 2.52061 17.2474 2.51212 17.2613C2.39457 17.454 2.28186 17.6489 2.17461 17.8475C2.16697 17.8615 2.15933 17.8755 2.15146 17.89C1.86595 18.4148 1.63774 18.9735 1.53206 19.5636C1.52804 19.5843 1.52403 19.605 1.51989 19.6263C1.43822 20.1177 1.50387 20.6586 1.77919 21.0817C1.82581 21.1449 1.87564 21.2042 1.92747 21.2632C1.94039 21.2802 1.9533 21.2972 1.9666 21.3148C2.0781 21.4371 2.21751 21.5363 2.35584 21.6262C2.37916 21.6414 2.37916 21.6414 2.40295 21.6569C3.0571 22.0564 3.90188 22.1712 4.6546 22.1741C4.67515 22.1742 4.69571 22.1743 4.71689 22.1745C4.78318 22.1748 4.84947 22.1749 4.91576 22.1749C4.92713 22.1749 4.93849 22.1749 4.9502 22.1749C5.33954 22.1749 5.72504 22.1636 6.11231 22.1213C6.12721 22.1197 6.14211 22.1181 6.15746 22.1164C6.66219 22.0618 7.16241 21.9856 7.66103 21.8902C7.67552 21.8875 7.69001 21.8847 7.70493 21.8819C9.2461 21.586 10.7644 21.1139 13.2298 20.1082C13.2406 20.1034 13.2513 20.0986 13.2624 20.0936C13.5949 19.945 13.9247 19.791 14.2513 19.6296C14.2645 19.6231 14.2777 19.6166 14.2913 19.6099C14.7817 19.3684 14.7817 19.3684 15.2629 19.1092C15.3119 19.0817 15.361 19.0544 15.4102 19.0271C15.5853 18.9297 15.7596 18.8314 15.9305 18.7266C15.9716 18.7014 16.0129 18.6765 16.0541 18.6516C16.2462 18.5353 16.4366 18.417 16.6238 18.2931C16.6387 18.2832 16.6536 18.2734 16.6689 18.2633C16.99 18.0511 17.3067 17.834 17.6124 17.6C17.6221 17.5926 17.6318 17.5852 17.6418 17.5776C17.7596 17.4877 17.8762 17.3964 17.9913 17.303C18.0123 17.2861 18.0123 17.2861 18.0337 17.2688C18.2115 17.1242 18.3851 16.9752 18.5529 16.819C18.5774 16.7965 18.602 16.7741 18.6273 16.7526C18.7519 16.6469 18.8649 16.5289 18.9799 16.413C19.0023 16.3905 19.0247 16.3679 19.0471 16.3454C19.1016 16.2906 19.1561 16.2358 19.2105 16.181C19.2805 16.2398 19.3476 16.2998 19.4118 16.365C19.4194 16.3726 19.4269 16.3803 19.4347 16.3881C19.4665 16.4202 19.4982 16.4524 19.5299 16.4846C19.613 16.569 19.6966 16.6517 19.7865 16.7289C20.2167 17.108 20.4485 17.5153 20.6352 18.0524C20.6424 18.0727 20.6495 18.093 20.6569 18.114C20.6631 18.1322 20.6694 18.1505 20.6758 18.1693C20.6891 18.2129 20.6891 18.2129 20.7263 18.2271C20.8919 18.2264 21.0516 18.1957 21.2123 18.159C21.2247 18.1562 21.2371 18.1534 21.2499 18.1505C22.5184 17.8625 23.7606 17.426 24.9952 17.021C25.1078 16.9841 25.2205 16.9474 25.3331 16.9109C25.3793 16.8959 25.4255 16.8809 25.4717 16.8659C25.5014 16.8562 25.5311 16.8466 25.5609 16.837C25.7073 16.7894 25.8535 16.7414 25.9988 16.6904C26.0102 16.6864 26.0216 16.6824 26.0333 16.6782C26.0856 16.6599 26.1378 16.6413 26.1899 16.6224C26.2165 16.613 26.2165 16.613 26.2436 16.6033C26.2589 16.5978 26.2741 16.5923 26.2898 16.5866C26.3281 16.577 26.3281 16.577 26.3775 16.5935C26.2557 16.6898 26.1318 16.7814 26.0034 16.8688C25.9187 16.9265 25.8353 16.9859 25.7524 17.0462C25.6565 17.116 25.5601 17.1852 25.4631 17.2535C25.3293 17.3478 25.1966 17.4436 25.0641 17.5397C25.0008 17.5857 24.9374 17.6315 24.8741 17.6774C24.8617 17.6864 24.8493 17.6953 24.8365 17.7046C24.7535 17.7646 24.6702 17.8243 24.5869 17.8838C24.5094 17.9392 24.4322 17.9949 24.3551 18.0507C24.3426 18.0597 24.3301 18.0688 24.3173 18.0781C24.2541 18.1238 24.1909 18.1696 24.1277 18.2155C23.9962 18.3108 23.8642 18.4055 23.7313 18.499C23.5965 18.5942 23.463 18.6912 23.3295 18.7881C23.1496 18.9186 22.9692 19.0482 22.7876 19.1761C22.7293 19.2172 22.671 19.2584 22.6128 19.2996C22.5894 19.3162 22.566 19.3327 22.5426 19.3492C22.4965 19.3818 22.4505 19.4144 22.4044 19.447C22.2524 19.5546 22.0999 19.6618 21.9473 19.7687C21.8915 19.8078 21.8357 19.8469 21.78 19.8861C21.6075 20.0074 21.4342 20.1274 21.26 20.2462C21.2218 20.2724 21.1835 20.2986 21.1453 20.3248C20.9457 20.4616 20.7454 20.5974 20.5451 20.733C20.5139 20.7541 20.4828 20.7752 20.4516 20.7964C20.2842 20.91 20.1162 21.0217 19.9441 21.1281C19.8616 21.1792 19.7807 21.2325 19.6997 21.2859C19.5322 21.3957 19.3638 21.5036 19.1941 21.6097C19.181 21.6179 19.1679 21.6261 19.1544 21.6346C17.8095 22.4745 16.4216 23.2676 14.9705 23.9096C14.9108 23.9362 14.8513 23.9631 14.7919 23.9902C14.0298 24.3375 13.2488 24.6419 12.4555 24.9099C12.435 24.9168 12.435 24.9168 12.414 24.9239C12.0139 25.059 11.6118 25.1821 11.2033 25.2894C11.1888 25.2933 11.1743 25.2971 11.1594 25.301C9.71428 25.6826 8.22766 25.9245 6.72912 25.8546C6.71394 25.8539 6.69876 25.8532 6.68312 25.8524C5.70592 25.8059 4.73665 25.6192 3.83866 25.2234C3.81572 25.2133 3.81572 25.2133 3.79232 25.2031C3.44665 25.0494 3.11926 24.8572 2.81716 24.6294C2.80694 24.6217 2.79672 24.614 2.78618 24.6061C2.66242 24.5126 2.54571 24.4135 2.43269 24.3072C2.39684 24.2739 2.36043 24.2421 2.32289 24.2107C2.15366 24.0629 2.01237 23.8845 1.87805 23.7053C1.87104 23.696 1.86403 23.6868 1.85682 23.6772C1.13918 22.7194 0.905828 21.4916 1.06171 20.3186C1.2826 18.8041 2.03624 17.418 3.02144 16.2646C3.06006 16.2193 3.09723 16.1729 3.13432 16.1263C3.21809 16.0231 3.3096 15.9274 3.40089 15.831C3.44683 15.7824 3.4917 15.733 3.53592 15.6828C3.62688 15.5805 3.72484 15.4851 3.82218 15.3889Z" fill="#002348"/>
<path d="M37.2185 13.5745C37.2294 13.5799 37.2402 13.5854 37.2514 13.591C37.138 13.7116 37.0176 13.8134 36.8866 13.9138C36.8456 13.9455 36.8054 13.9781 36.7652 14.0106C36.662 14.0942 36.5572 14.1753 36.4507 14.2546C36.3729 14.3127 36.2956 14.3714 36.2186 14.4305C36.0835 14.5342 35.9474 14.636 35.8091 14.7353C35.7289 14.7928 35.6497 14.8515 35.5709 14.911C35.4671 14.9895 35.3621 15.0661 35.2566 15.1421C35.1663 15.2072 35.0765 15.2729 34.9871 15.339C34.9676 15.3534 34.9676 15.3534 34.9478 15.368C34.8818 15.4168 34.8159 15.4656 34.75 15.5145C34.6147 15.6149 34.4787 15.714 34.3409 15.8109C34.2188 15.8967 34.098 15.9843 33.9772 16.072C33.9153 16.1169 33.8534 16.1616 33.7915 16.2063C33.7668 16.2242 33.7421 16.2421 33.7174 16.26C33.4703 16.4387 33.2231 16.6175 32.976 16.7963C32.9638 16.8051 32.9515 16.814 32.9389 16.8231C32.9142 16.8409 32.8896 16.8587 32.8649 16.8766C32.8023 16.9219 32.7397 16.9672 32.6771 17.0125C32.5563 17.1 32.4354 17.1873 32.314 17.2739C32.2361 17.3295 32.1586 17.3857 32.0812 17.4418C31.9845 17.5119 31.8874 17.5814 31.7897 17.6502C31.6433 17.7534 31.4981 17.8584 31.3531 17.9637C31.1967 18.0773 31.0399 18.1903 30.8818 18.3016C30.7968 18.3616 30.7124 18.4224 30.6282 18.4835C30.5211 18.5612 30.4134 18.638 30.3052 18.7142C30.2202 18.7741 30.1357 18.8349 30.0515 18.896C29.9444 18.9737 29.8367 19.0505 29.7285 19.1267C29.6435 19.1866 29.5591 19.2474 29.4749 19.3085C29.3678 19.3862 29.26 19.4631 29.1518 19.5392C29.0674 19.5987 28.9838 19.6592 28.9003 19.72C28.7985 19.794 28.6955 19.8659 28.5914 19.9366C28.494 20.0026 28.3987 20.0704 28.3051 20.1418C28.1988 20.2229 28.0897 20.299 27.979 20.374C27.8384 20.4697 27.7011 20.5696 27.5637 20.6698C27.4 20.7893 27.2354 20.9067 27.0678 21.0207C26.9766 21.0829 26.8872 21.1471 26.7985 21.2128C26.6762 21.3035 26.5514 21.3908 26.4269 21.4784C26.3805 21.511 26.3342 21.5437 26.2879 21.5763C26.2763 21.5845 26.2648 21.5926 26.2529 21.601C26.1683 21.6608 26.0844 21.7216 26.0006 21.7826C25.8984 21.8569 25.7951 21.9292 25.6906 22.0002C25.5872 22.0705 25.4854 22.1425 25.3851 22.2171C25.2867 22.29 25.1864 22.3599 25.086 22.4299C24.9937 22.4944 24.9022 22.5599 24.8112 22.6262C24.7101 22.6999 24.6078 22.7714 24.5044 22.8417C24.4009 22.9121 24.2992 22.984 24.1988 23.0586C24.0726 23.1521 23.9434 23.2413 23.8147 23.3312C23.7534 23.3741 23.6922 23.4173 23.6312 23.4605C23.6198 23.4686 23.6084 23.4766 23.5967 23.4849C23.574 23.501 23.5512 23.5171 23.5284 23.5333C23.4703 23.5744 23.4122 23.6154 23.3542 23.6565C23.3308 23.673 23.3075 23.6895 23.2841 23.706C22.3038 24.399 22.3038 24.399 22.2688 24.4238C22.2456 24.4402 22.2224 24.4566 22.1993 24.4729C22.1383 24.5161 22.0772 24.5592 22.0162 24.6022C22.0035 24.6112 21.9908 24.6202 21.9777 24.6294C21.9534 24.6466 21.9291 24.6637 21.9048 24.6808C21.8938 24.6886 21.8828 24.6964 21.8715 24.7043C21.8619 24.7111 21.8523 24.7179 21.8424 24.7249C21.8329 24.7317 21.8234 24.7385 21.8137 24.7455C21.7965 24.7547 21.7965 24.7547 21.779 24.764C21.7304 24.8123 21.7276 24.8714 21.7177 24.9366C21.7153 24.951 21.7129 24.9653 21.7104 24.9801C21.7051 25.0111 21.7 25.0422 21.695 25.0732C21.6815 25.1561 21.6669 25.2388 21.6523 25.3214C21.6493 25.3383 21.6463 25.3551 21.6433 25.3724C21.5663 25.8031 21.4543 26.2272 21.3194 26.6431C21.3118 26.6686 21.3118 26.6686 21.3041 26.6945C21.272 26.7954 21.2472 26.8461 21.1495 26.8968C21.1388 26.9026 21.1282 26.9084 21.1172 26.9144C21.0935 26.9273 21.0696 26.9399 21.0456 26.9524C20.9881 26.9828 20.9318 27.0151 20.8754 27.0473C20.827 27.0749 20.7785 27.1022 20.73 27.1295C20.6423 27.179 20.5552 27.2294 20.4682 27.28C20.266 27.3977 20.062 27.5113 19.8558 27.6217C19.8099 27.6463 19.7641 27.671 19.7184 27.6958C19.5161 27.8054 19.3131 27.9133 19.1069 28.0153C19.0152 28.0607 18.9247 28.1077 18.8347 28.156C18.6012 28.2805 18.3617 28.3935 18.1231 28.5077C18.1122 28.513 18.1013 28.5182 18.09 28.5236C17.309 28.8981 16.5111 29.2405 15.7012 29.5473C15.6888 29.552 15.6764 29.5567 15.6637 29.5615C14.3224 30.0695 12.9423 30.4881 9.18746 30.9697C9.16079 30.9698 9.13412 30.9699 9.10745 30.9701C9.02278 30.9704 8.93811 30.9705 8.85344 30.9705C8.83181 30.9705 8.83181 30.9705 8.80975 30.9705C8.39876 30.9706 7.9896 30.9699 7.58093 30.921C7.54364 30.9166 7.50632 30.9124 7.469 30.9083C6.06341 30.7501 4.66455 30.3308 3.47616 29.5473C3.45877 29.536 3.44137 29.5248 3.42345 29.5132C3.17735 29.3521 2.94359 29.1752 2.71828 28.9862C2.70861 28.9782 2.69894 28.9701 2.68897 28.9619C2.44354 28.7571 2.19993 28.5391 1.99167 28.2961C1.95599 28.2552 1.91906 28.2155 1.88213 28.1756C1.79574 28.0806 1.71668 27.981 1.63859 27.8791C1.61398 27.8471 1.58903 27.8155 1.56401 27.7839C0.814886 26.8309 0.318889 25.6634 0.0934861 24.4753C0.0896871 24.4554 0.0858881 24.4354 0.081974 24.4149C0.0701074 24.3492 0.0594229 24.2834 0.0492075 24.2175C0.0470266 24.204 0.0448457 24.1904 0.0425987 24.1764C-0.00275797 23.888 -0.00822268 23.6018 -0.0065912 23.3106C-0.00639523 23.2733 -0.00627877 23.236 -0.00618092 23.1987C-0.00505104 22.8271 0.00315119 22.4581 0.0492075 22.0889C0.0507609 22.0763 0.0523133 22.0637 0.0539137 22.0506C0.0879284 21.7757 0.128045 21.5028 0.181014 21.2309C0.186451 21.2309 0.191888 21.2309 0.197489 21.2309C0.197586 21.2403 0.197683 21.2498 0.197783 21.2595C0.213837 22.7689 0.405207 24.2357 1.58145 25.7521C1.5929 25.7651 1.5929 25.7651 1.60459 25.7784C1.80192 26.0015 2.01862 26.2008 2.25696 26.3791C2.26806 26.3875 2.27916 26.3959 2.29059 26.4046C2.4803 26.5476 2.67697 26.6737 2.88304 26.7916C2.89713 26.7998 2.91122 26.8079 2.92575 26.8163C3.90374 27.3784 5.0129 27.6295 6.12567 27.7363C6.1399 27.7377 6.15413 27.7391 6.16879 27.7405C6.54009 27.7758 6.90913 27.7851 7.28206 27.7848C7.299 27.7848 7.299 27.7848 7.31628 27.7848C7.67933 27.7845 8.04053 27.7795 8.40241 27.7487C8.42479 27.7468 8.42479 27.7468 8.44762 27.7449C10.0511 27.6107 11.6136 27.273 13.1474 26.7916C13.1625 26.7869 13.1776 26.7822 13.1931 26.7773C14.633 26.3249 16.0289 25.7366 17.3751 25.0543C17.4775 25.0025 17.5808 24.9526 17.6844 24.9033C17.9468 24.7784 18.2067 24.6488 18.4631 24.5122C18.574 24.4534 18.6862 24.3972 18.7986 24.3413C18.9342 24.2737 19.0691 24.2052 19.2028 24.1341C19.2812 24.0925 19.3597 24.0514 19.4386 24.0107C19.4485 24.0056 19.4585 24.0005 19.4688 23.9952C19.4839 23.9874 19.4839 23.9874 19.4994 23.9794C19.676 23.8884 19.8517 23.796 20.0256 23.6999C20.1563 23.628 20.2888 23.5596 20.4215 23.4915C20.5819 23.409 20.7414 23.3253 20.8993 23.2382C21.0331 23.1644 21.168 23.0928 21.3029 23.0212C21.4833 22.9255 21.6631 22.8289 21.8421 22.7306C21.9032 22.697 21.9644 22.6637 22.0257 22.6307C22.2072 22.5327 22.3876 22.4331 22.5667 22.3309C22.676 22.2688 22.7864 22.2096 22.8979 22.1516C23.0165 22.0896 23.1326 22.0236 23.2487 21.9573C23.3627 21.8924 23.4776 21.8293 23.5931 21.7671C23.7369 21.6896 23.8795 21.6101 24.0216 21.5292C24.1493 21.4566 24.2778 21.3853 24.4065 21.3144C24.7363 21.1326 25.0643 20.9479 25.3919 20.7622C25.4379 20.7361 25.484 20.71 25.53 20.684C25.7122 20.5811 25.8939 20.4775 26.0753 20.3735C26.2126 20.2947 26.3504 20.2169 26.4887 20.1397C26.6381 20.0563 26.7863 19.9709 26.9339 19.8842C27.0603 19.81 27.1873 19.737 27.3145 19.6643C27.5175 19.5484 27.7201 19.4316 27.9224 19.3145C27.9762 19.2834 28.0299 19.2524 28.0837 19.2214C28.3065 19.0928 28.5289 18.9636 28.7509 18.8336C28.799 18.8055 28.8471 18.7774 28.8952 18.7493C29.0934 18.6336 29.2914 18.5177 29.4892 18.4014C29.5095 18.3895 29.5299 18.3775 29.5502 18.3656C29.5603 18.3596 29.5704 18.3537 29.5808 18.3476C29.6515 18.3061 29.7222 18.2647 29.793 18.2234C29.8328 18.2001 29.8727 18.1768 29.9125 18.1534C29.9223 18.1477 29.9322 18.142 29.9423 18.136C30.1033 18.0417 30.2628 17.9451 30.4219 17.8476C30.5334 17.7794 30.6452 17.7126 30.76 17.6502C30.8939 17.5773 31.0239 17.4983 31.1539 17.4187C31.313 17.3214 31.4728 17.2254 31.6332 17.1304C31.8475 17.0034 32.0606 16.8747 32.2732 16.7449C32.3402 16.704 32.4073 16.6633 32.4744 16.6225C32.6789 16.4984 32.883 16.3737 33.0866 16.2479C33.2169 16.1675 33.3476 16.0878 33.4785 16.0083C33.7918 15.8181 34.1042 15.6264 34.4135 15.4296C34.464 15.3975 34.5146 15.3656 34.5652 15.3336C34.7218 15.2347 34.878 15.1353 35.0342 15.0356C35.0937 14.9977 35.1532 14.9598 35.2128 14.9221C35.8465 14.5203 36.4711 14.103 37.0851 13.6718C37.0965 13.6637 37.108 13.6557 37.1198 13.6474C37.1531 13.6236 37.1859 13.5992 37.2185 13.5745Z" fill="#002348"/>
<path d="M43.5054 6.45695C43.5455 6.457 43.5856 6.45661 43.6257 6.4562C43.9651 6.45481 44.2575 6.52923 44.5416 6.71767C44.5519 6.72445 44.5621 6.73124 44.5727 6.73822C44.5816 6.74425 44.5904 6.75027 44.5996 6.75648C44.7143 6.82249 44.7987 6.8317 44.9299 6.82885C44.9473 6.8287 44.9648 6.82855 44.9828 6.8284C45.0385 6.82791 45.0942 6.82709 45.1499 6.82621C45.9468 6.81468 45.9468 6.81468 46.1209 6.96234C46.159 7.02314 46.1617 7.05126 46.1487 7.12219C45.9283 7.61804 45.0784 7.89913 44.6198 8.13464C44.2735 8.3126 43.9344 8.50276 43.5986 8.69988C43.4729 8.77364 43.3467 8.84642 43.2201 8.91872C43.2105 8.92421 43.2009 8.9297 43.191 8.93536C43.1126 8.98015 43.0342 9.02489 42.9558 9.06963C42.8874 9.10869 42.819 9.14776 42.7506 9.18686C42.7362 9.19509 42.7362 9.19509 42.7215 9.20348C42.5883 9.27964 42.4556 9.35667 42.3232 9.43437C42.1708 9.52388 42.017 9.61079 41.8626 9.69692C41.7567 9.75611 41.6516 9.81651 41.5474 9.87854C41.4374 9.94382 41.3263 10.0073 41.2152 10.0707C41.0582 10.1604 40.9013 10.2504 40.7446 10.3409C40.7277 10.3507 40.7107 10.3605 40.6932 10.3706C40.5783 10.437 40.4637 10.5039 40.3492 10.5709C40.4141 10.5462 40.479 10.5214 40.5438 10.4966C40.5632 10.4892 40.5826 10.4818 40.6026 10.4742C40.6931 10.4394 40.783 10.4042 40.8717 10.3649C40.8857 10.3588 40.8996 10.3526 40.9141 10.3462C40.9398 10.3347 40.9654 10.323 40.9909 10.311C41.0686 10.2763 41.1212 10.2655 41.206 10.2904C41.3149 10.3715 41.3742 10.4957 41.4202 10.6204C41.4242 10.6314 41.4283 10.6424 41.4324 10.6537C41.4736 10.7888 41.4715 10.9515 41.4202 11.0824C41.3738 11.1163 41.3738 11.1163 41.3142 11.1439C41.2981 11.1515 41.2981 11.1515 41.2816 11.1594C41.2463 11.176 41.2107 11.1921 41.1751 11.2082C41.1501 11.2199 41.1251 11.2316 41.1001 11.2433C41.0373 11.2728 40.9742 11.3018 40.9111 11.3306C40.8442 11.3611 40.7776 11.3921 40.7109 11.423C40.6752 11.4396 40.6395 11.4561 40.6037 11.4725C40.4323 11.5519 40.2628 11.635 40.0933 11.7184C39.1755 12.1697 38.3127 12.4901 37.2744 12.4891C37.2631 12.4891 37.2519 12.4891 37.2402 12.4891C37.1378 12.4887 37.0396 12.4874 36.9387 12.4685C36.982 12.4396 37.0186 12.4217 37.0664 12.4024C37.3822 12.273 37.6875 12.125 37.9932 11.9734C37.6838 12.0774 37.3771 12.1883 37.0706 12.3004C36.8139 12.3942 36.5572 12.4877 36.2993 12.5778C35.9823 12.6886 35.6665 12.8027 35.3507 12.9169C35.215 12.9659 35.0792 13.0148 34.9434 13.0635C34.367 13.2699 34.367 13.2699 33.7927 13.4819C33.4635 13.6055 33.1318 13.7221 32.8006 13.8403C32.592 13.9147 32.3836 13.9898 32.1752 14.0649C32.1586 14.0709 32.1421 14.0769 32.125 14.083C32.0771 14.1003 32.0293 14.1175 31.9815 14.1348C31.9683 14.1396 31.955 14.1443 31.9414 14.1492C31.9279 14.1541 31.9144 14.159 31.9004 14.164C31.8855 14.1694 31.8705 14.1747 31.8551 14.1802C31.8091 14.1971 31.7635 14.2145 31.718 14.2322C31.5139 14.3106 31.3166 14.3634 31.1013 14.3993C31.0673 14.4053 31.0333 14.4112 30.9993 14.4172C30.921 14.431 30.8427 14.4446 30.7644 14.4581C30.6115 14.4844 30.4588 14.5116 30.3061 14.5388C30.2471 14.5493 30.1882 14.5597 30.1292 14.5702C30.1067 14.5742 30.1067 14.5742 30.0837 14.5783C29.9095 14.6093 29.7354 14.64 29.5612 14.6707C29.5368 14.675 29.5368 14.675 29.5119 14.6794C29.4285 14.6941 29.3451 14.7088 29.2617 14.7235C29.0042 14.7689 28.7468 14.8144 28.4893 14.8598C28.4036 14.8749 28.3179 14.8901 28.2322 14.9052C27.8293 14.9762 27.4265 15.0475 27.0237 15.1193C26.9402 15.1342 26.8567 15.1491 26.7732 15.1639C26.7619 15.1659 26.7505 15.168 26.7388 15.17C26.6942 15.178 26.6496 15.1859 26.605 15.1938C26.4695 15.2179 26.3339 15.2422 26.1984 15.2665C26.1231 15.2799 26.0478 15.2933 25.9724 15.3067C25.9384 15.3128 25.9043 15.3189 25.8702 15.325C25.8245 15.3333 25.7788 15.3414 25.733 15.3494C25.72 15.3518 25.707 15.3542 25.6935 15.3567C25.5642 15.3792 25.4468 15.3749 25.3183 15.349C25.3053 15.3464 25.2922 15.3439 25.2788 15.3413C25.2359 15.333 25.193 15.3244 25.1502 15.3159C25.1197 15.3099 25.0892 15.3039 25.0587 15.298C24.9945 15.2854 24.9304 15.2727 24.8663 15.26C24.7861 15.2441 24.7059 15.2283 24.6256 15.2126C24.3073 15.1503 23.9894 15.0863 23.6724 15.0178C23.6592 15.015 23.646 15.0122 23.6324 15.0093C23.5958 15.0013 23.5591 14.9934 23.5225 14.9854C23.5019 14.9809 23.4813 14.9764 23.46 14.9717C23.4122 14.9601 23.4122 14.9601 23.3792 14.9436C23.3792 14.9327 23.3792 14.9218 23.3792 14.9106C23.4023 14.9057 23.4023 14.9057 23.4258 14.9008C23.6475 14.8523 23.8617 14.7828 24.0774 14.7126C24.116 14.7001 24.1547 14.6876 24.1933 14.6751C24.4999 14.5758 24.8051 14.4728 25.1092 14.3661C25.1092 14.3186 25.0873 14.2942 25.0621 14.2542C25.0469 14.23 25.0469 14.23 25.0314 14.2053C25.0148 14.1792 25.0148 14.1792 24.998 14.1526C24.981 14.1257 24.981 14.1257 24.9638 14.0982C24.9299 14.0445 24.896 13.9907 24.862 13.937C24.8448 13.9097 24.8275 13.8823 24.8103 13.855C24.7867 13.8175 24.7631 13.7801 24.7394 13.7427C24.6734 13.6382 24.6081 13.5334 24.5428 13.4286C24.4432 13.2688 24.3426 13.1096 24.2414 12.9508C24.1899 12.8699 24.1387 12.7889 24.0877 12.7077C24.0165 12.5948 23.9451 12.4821 23.8735 12.3695C23.7768 12.2175 23.6806 12.0652 23.5846 11.9128C23.5355 11.8348 23.4863 11.7569 23.4372 11.6789C23.3943 11.611 23.3515 11.543 23.3087 11.475C23.2998 11.4609 23.2909 11.4468 23.2818 11.4323C23.2649 11.4054 23.2479 11.3785 23.2311 11.3516C23.2234 11.3394 23.2157 11.3272 23.2078 11.3146C23.1969 11.2973 23.1969 11.2973 23.1859 11.2797C23.1666 11.2498 23.1461 11.221 23.1254 11.192C23.1124 11.1704 23.1124 11.1704 23.0991 11.1484C23.1046 11.1321 23.11 11.1157 23.1156 11.0989C23.3526 11.0529 23.5896 11.0071 23.8267 10.9616C23.9368 10.9405 24.0468 10.9193 24.1568 10.8979C24.263 10.8773 24.3692 10.8569 24.4754 10.8366C24.5159 10.8289 24.5565 10.821 24.597 10.8131C24.6537 10.802 24.7104 10.7912 24.7672 10.7804C24.784 10.7771 24.8008 10.7737 24.8181 10.7703C24.8336 10.7674 24.8491 10.7645 24.8651 10.7616C24.8785 10.759 24.8919 10.7564 24.9057 10.7537C24.9817 10.7511 25.0426 10.7929 25.1056 10.8316C25.1206 10.8408 25.1356 10.85 25.1511 10.8595C25.1672 10.8694 25.1832 10.8793 25.1998 10.8895C25.2166 10.8999 25.2335 10.9102 25.2508 10.9209C25.3025 10.9526 25.3541 10.9845 25.4057 11.0164C25.4205 11.0255 25.4352 11.0346 25.4504 11.044C25.5206 11.0874 25.5908 11.131 25.6609 11.1746C25.7624 11.2376 25.8642 11.3003 25.9659 11.3629C26.0951 11.4425 26.2242 11.5222 26.3531 11.6022C26.535 11.7151 26.7173 11.8274 26.8996 11.9396C26.9893 11.9949 27.0789 12.0502 27.1686 12.1054C27.204 12.1273 27.2395 12.1491 27.2749 12.1709C27.525 12.3251 27.7752 12.4793 28.0254 12.6335C28.0158 12.6925 27.9946 12.7198 27.9526 12.7615C27.9407 12.7734 27.9288 12.7853 27.9166 12.7975C27.9037 12.8102 27.8908 12.8228 27.8775 12.8359C27.8644 12.849 27.8513 12.862 27.8377 12.8755C27.7957 12.9173 27.7535 12.959 27.7113 13.0006C27.6828 13.0289 27.6543 13.0572 27.6258 13.0856C27.5559 13.155 27.4859 13.2243 27.4158 13.2935C27.6255 13.2208 27.8342 13.1458 28.0421 13.0683C28.3426 12.9564 28.6436 12.8461 28.9449 12.7366C29.2841 12.6134 29.6229 12.489 29.9614 12.3639C30.2713 12.2493 30.5815 12.1355 30.8921 12.0229C30.7363 11.9561 30.5751 11.9048 30.4143 11.8515C30.3827 11.841 30.351 11.8305 30.3194 11.8199C30.2516 11.7974 30.1838 11.7748 30.116 11.7523C30.0088 11.7168 29.9017 11.6811 29.7945 11.6454C29.4899 11.544 29.1853 11.4427 28.8807 11.3415C28.7122 11.2855 28.5438 11.2295 28.3754 11.1734C28.2688 11.1378 28.1622 11.1024 28.0555 11.0671C27.9894 11.0451 27.9233 11.0231 27.8572 11.001C27.8264 10.9908 27.7957 10.9806 27.7649 10.9704C27.7231 10.9566 27.6813 10.9426 27.6394 10.9286C27.6272 10.9246 27.6149 10.9206 27.6022 10.9164C27.5184 10.8881 27.5184 10.8881 27.4817 10.8514C27.6241 10.79 27.767 10.7297 27.91 10.6699C27.9238 10.6641 27.9376 10.6583 27.9519 10.6524C28.0435 10.6141 28.1352 10.5761 28.2271 10.5384C28.2579 10.5257 28.2887 10.513 28.3195 10.5002C28.3633 10.4819 28.4073 10.4639 28.4512 10.446C28.4642 10.4405 28.4773 10.435 28.4907 10.4294C28.5031 10.4243 28.5156 10.4193 28.5285 10.4141C28.5445 10.4075 28.5445 10.4075 28.5608 10.4008C28.7101 10.3594 28.8737 10.3678 29.0277 10.364C29.056 10.3632 29.0844 10.3625 29.1127 10.3617C29.1903 10.3596 29.2679 10.3576 29.3456 10.3556C29.4294 10.3534 29.5132 10.3512 29.5969 10.3489C29.742 10.3451 29.8871 10.3413 30.0322 10.3375C30.242 10.332 30.4518 10.3265 30.6616 10.3209C31.002 10.3119 31.3424 10.303 31.6828 10.2941C32.0134 10.2854 32.344 10.2767 32.6746 10.268C32.7052 10.2672 32.7052 10.2672 32.7364 10.2664C32.8387 10.2637 32.9409 10.261 33.0432 10.2583C33.8914 10.2359 34.7396 10.2136 35.5877 10.1913C35.5536 10.186 35.5195 10.1807 35.4854 10.1754C35.4569 10.171 35.4569 10.171 35.4278 10.1665C35.3612 10.1565 35.2945 10.1485 35.2275 10.1415C35.2081 10.1394 35.2081 10.1394 35.1882 10.1372C35.1606 10.1343 35.1329 10.1313 35.1053 10.1284C35.0615 10.1237 35.0177 10.119 34.974 10.1142C34.8497 10.1007 34.7254 10.0872 34.6012 10.074C34.5247 10.0658 34.4483 10.0575 34.3719 10.0491C34.3429 10.046 34.3139 10.0429 34.2848 10.0398C34.2445 10.0356 34.2041 10.0312 34.1637 10.0267C34.1518 10.0255 34.1398 10.0243 34.1275 10.023C34.0696 10.0164 34.0391 10.0099 33.9896 9.97684C34.1345 9.90904 34.2803 9.84409 34.4272 9.78089C34.8311 9.60648 35.2323 9.42579 35.6337 9.24578C35.9442 9.10657 36.255 8.96813 36.566 8.82997C36.6265 8.80307 36.687 8.77615 36.7475 8.74919C37.2214 8.53815 37.6971 8.33166 38.1744 8.12874C38.1899 8.12217 38.2054 8.11559 38.2213 8.10882C41.1486 6.86525 41.1486 6.86525 42.6939 6.54466C42.706 6.54231 42.718 6.53996 42.7304 6.53754C42.989 6.48768 43.2419 6.45623 43.5054 6.45695Z" fill="#002348"/>
<path d="M21.0063 12.7324C21.0118 12.7433 21.0172 12.7542 21.0228 12.7654C20.7387 13.1327 20.3494 13.4145 19.9786 13.6895C19.9668 13.6983 19.955 13.7071 19.9428 13.7161C19.7169 13.8825 19.4824 14.0374 19.2502 14.1947C19.2196 14.2154 19.1891 14.2361 19.1586 14.2568C18.9692 14.3856 18.7782 14.5097 18.5821 14.6279C18.514 14.6692 18.4473 14.7127 18.3805 14.7558C17.4899 15.3267 16.5645 15.8485 15.6319 16.3468C15.6012 16.3632 15.5705 16.3796 15.5398 16.396C14.7588 16.8139 13.9695 17.2195 13.1628 17.5857C13.1275 17.6017 13.0923 17.6178 13.0571 17.6338C12.1844 18.0314 11.3003 18.4023 10.3959 18.7222C10.3812 18.7274 10.3665 18.7326 10.3514 18.738C9.30834 19.1063 8.23651 19.4256 7.13374 19.5473C7.11652 19.5492 7.09929 19.5511 7.08154 19.5531C6.31522 19.6357 5.38013 19.6315 4.73961 19.1378C4.71347 19.1153 4.68775 19.0922 4.66238 19.0687C4.63858 19.0472 4.63858 19.0472 4.6143 19.0252C4.28039 18.713 4.11017 18.2745 4.08206 17.8216C4.06819 17.2544 4.33504 16.7112 4.66238 16.2636C4.66928 16.2542 4.67618 16.2447 4.6833 16.235C4.88623 15.96 5.11789 15.7075 5.35848 15.4654C5.36918 15.4546 5.37988 15.4438 5.3909 15.4327C5.46391 15.3598 5.53987 15.2914 5.61797 15.224C5.6376 15.2068 5.65721 15.1895 5.6768 15.1722C5.80327 15.0612 5.93195 14.9542 6.0653 14.8515C6.09727 14.8269 6.12909 14.802 6.1609 14.7772C6.55957 14.4671 6.98294 14.1938 7.41645 13.9356C7.46938 13.9039 7.52148 13.8714 7.57305 13.8376C7.79975 13.6934 8.06071 13.6451 8.32 13.5905C8.33201 13.5879 8.34402 13.5853 8.3564 13.5827C8.65892 13.5183 8.96256 13.4673 9.26941 13.4286C9.28224 13.4269 9.29507 13.4253 9.30829 13.4236C9.73097 13.3703 10.152 13.3532 10.5775 13.3542C10.6169 13.3543 10.6563 13.3543 10.6957 13.3544C11.0637 13.355 11.4296 13.3595 11.7953 13.4048C11.8313 13.4092 11.8673 13.4134 11.9033 13.4175C13.2117 13.57 14.4546 13.9589 15.6332 14.5444C15.6589 14.5572 15.6589 14.5572 15.6851 14.5702C15.7715 14.6136 15.8535 14.6596 15.935 14.7117C16.0105 14.7563 16.0582 14.7746 16.1444 14.7558C16.1558 14.7524 16.1672 14.749 16.1789 14.7455C16.1898 14.7428 16.2007 14.74 16.2119 14.7371C16.2482 14.7272 16.2834 14.7155 16.319 14.7032C16.3334 14.6983 16.3478 14.6934 16.3626 14.6884C16.9029 14.5002 17.4307 14.2734 17.9583 14.0525C17.9718 14.0468 17.9853 14.0412 17.9992 14.0354C18.1791 13.9601 18.3587 13.8842 18.5383 13.808C18.5888 13.7866 18.6393 13.7652 18.6898 13.7438C19.2499 13.507 19.2499 13.507 19.8054 13.2595C20.0062 13.1676 20.2089 13.0803 20.4116 12.9929C20.424 12.9875 20.4365 12.9822 20.4493 12.9766C20.4616 12.9713 20.4739 12.966 20.4866 12.9606C20.6603 12.8856 20.8334 12.8091 21.0063 12.7324Z" fill="#002348"/>
<path d="M20.1333 29.1499C20.0955 29.2541 20.0311 29.3399 19.9685 29.4304C19.9612 29.4411 19.9538 29.4517 19.9462 29.4627C19.6801 29.8464 19.3968 30.2157 19.0826 30.5611C19.0518 30.5954 19.0215 30.63 18.9912 30.6648C18.9332 30.7314 18.8736 30.7964 18.8132 30.8608C18.8025 30.8722 18.7919 30.8835 18.7809 30.8952C18.6504 31.0338 18.5191 31.1728 18.3738 31.2962C18.3334 31.3315 18.2944 31.3681 18.2553 31.4049C18.1631 31.4916 18.0696 31.5752 17.9707 31.6544C17.9309 31.6867 17.8921 31.7198 17.8534 31.7533C17.7025 31.8838 17.5423 32.0018 17.3818 32.1201C17.3689 32.1296 17.3559 32.1392 17.3426 32.1491C17.1676 32.2784 16.9892 32.4001 16.8052 32.5161C16.7922 32.5243 16.7792 32.5326 16.7659 32.5411C16.0522 32.9945 15.2955 33.3576 14.4986 33.6381C14.4791 33.6451 14.4595 33.6521 14.4394 33.6593C14.0912 33.7832 13.7428 33.8606 13.3782 33.9186C13.3552 33.9223 13.3552 33.9223 13.3318 33.9261C12.8948 33.9953 12.4572 34.0504 12.0164 34.0882C12.0049 34.0892 11.9934 34.0901 11.9816 34.0912C11.7508 34.1101 11.5208 34.1194 11.2893 34.12C11.2758 34.1201 11.2623 34.1201 11.2484 34.1201C11.1767 34.1204 11.1051 34.1205 11.0334 34.1206C10.9758 34.1207 10.9182 34.1209 10.8605 34.1213C10.336 34.1247 9.81449 34.1 9.2943 34.029C9.28138 34.0273 9.26846 34.0256 9.25515 34.0238C8.03409 33.8614 6.86228 33.4974 5.76216 32.943C5.73568 32.9297 5.70914 32.9165 5.6826 32.9033C5.44291 32.7838 5.2168 32.6452 4.99207 32.4996C4.97987 32.4917 4.96768 32.4838 4.95512 32.4756C4.88438 32.4296 4.81441 32.3825 4.74493 32.3346C4.73406 32.3271 4.72319 32.3196 4.71199 32.3119C4.30025 32.0269 3.90733 31.7131 3.5404 31.3721C3.51024 31.3442 3.47989 31.3165 3.44927 31.2891C3.33204 31.1837 3.22016 31.0733 3.10868 30.9619C3.10084 30.9541 3.09299 30.9463 3.08491 30.9382C3.00097 30.8545 2.91888 30.7701 2.84176 30.6801C2.80779 30.6404 2.77234 30.6022 2.73695 30.5638C2.67074 30.491 2.60755 30.4166 2.54587 30.3399C2.51493 30.3015 2.48347 30.2635 2.45178 30.2257C2.2097 29.936 1.98849 29.6292 1.7793 29.3149C1.78473 29.2986 1.79017 29.2822 1.79577 29.2654C1.80216 29.2723 1.80854 29.2792 1.81512 29.2863C1.84469 29.3182 1.87429 29.3501 1.90389 29.3819C1.91393 29.3928 1.92396 29.4036 1.9343 29.4148C2.06452 29.5551 2.06452 29.5551 2.20561 29.6841C2.25519 29.7269 2.30176 29.7715 2.34771 29.8182C2.41375 29.885 2.4824 29.9468 2.55366 30.0079C2.57146 30.0235 2.58924 30.0391 2.60701 30.0547C2.84543 30.2635 3.08883 30.4641 3.34449 30.6515C3.3565 30.6603 3.3685 30.6691 3.38087 30.6782C3.5471 30.8003 3.71513 30.9188 3.88819 31.031C3.89992 31.0386 3.91166 31.0463 3.92374 31.0541C4.12736 31.1861 4.33518 31.3092 4.54722 31.427C4.56423 31.4365 4.58123 31.446 4.59875 31.4558C5.79685 32.123 7.1352 32.5306 9.36586 32.7174C9.38955 32.7176 9.41324 32.7177 9.43692 32.7178C9.51226 32.7181 9.5876 32.7182 9.66294 32.7182C9.67579 32.7182 9.68864 32.7182 9.70188 32.7182C10.0991 32.7185 10.4931 32.7112 10.8883 32.6683C10.9238 32.6645 10.9592 32.6609 10.9946 32.6574C12.3629 32.5186 13.7119 32.1677 16.904 30.8495C16.9214 30.8409 16.9214 30.8409 16.9392 30.8322C17.2604 30.6736 17.5803 30.5137 17.8926 30.338C17.9273 30.3186 17.9619 30.2992 17.9966 30.2798C18.1223 30.2096 18.2478 30.1393 18.3729 30.068C18.6587 29.9053 18.9487 29.7494 19.2434 29.6035C19.4263 29.5128 19.6063 29.4167 19.7857 29.3192C19.8054 29.3085 19.8251 29.2978 19.8448 29.287C19.8836 29.266 19.9223 29.2449 19.961 29.2237C19.9786 29.2141 19.9963 29.2045 20.0144 29.1946C20.0381 29.1817 20.0381 29.1817 20.0622 29.1685C20.1003 29.1499 20.1003 29.1499 20.1333 29.1499Z" fill="#002348"/>
</svg>
