<svg width="56" height="56" viewBox="0 0 56 56" fill="none" xmlns="http://www.w3.org/2000/svg">
<rect width="56" height="56" rx="4" fill="#002348"/>
<path d="M28.0006 30.5568C23.6782 30.5568 20.1618 33.3236 19.8523 36.8067H19.7154C20.0245 33.2285 23.6254 30.4204 28.0006 30.4204C32.3757 30.4204 35.9767 33.2285 36.2858 36.8067H36.1488C35.8394 33.3236 32.323 30.5568 28.0006 30.5568Z" stroke="#E8D6AD"/>
<path d="M41.8483 31.0773C40.2449 31.0773 38.7617 31.4991 37.5514 32.2148L37.4741 32.1022C38.7075 31.3708 40.2178 30.9409 41.8483 30.9409C45.7927 30.9409 49.0438 33.4606 49.3511 36.6816H49.214C48.9064 33.5554 45.7397 31.0773 41.8483 31.0773Z" stroke="#E8D6AD"/>
<path d="M14.1507 31.0773C15.7541 31.0773 17.2374 31.4991 18.4476 32.2148L18.5249 32.1022C17.2916 31.3708 15.7812 30.9409 14.1507 30.9409C10.2063 30.9409 6.95523 33.4606 6.6479 36.6816H6.785C7.09266 33.5554 10.2594 31.0773 14.1507 31.0773Z" stroke="#E8D6AD"/>
<path d="M27.9997 28.1478C30.6293 28.1478 32.7611 26.0161 32.7611 23.3864C32.7611 20.7568 30.6293 18.6251 27.9997 18.6251C25.3701 18.6251 23.2384 20.7568 23.2384 23.3864C23.2384 26.0161 25.3701 28.1478 27.9997 28.1478ZM32.8974 23.3864C32.8974 26.0914 30.7046 28.2841 27.9997 28.2841C25.2948 28.2841 23.1021 26.0914 23.1021 23.3864C23.1021 20.6815 25.2948 18.4888 27.9997 18.4888C30.7046 18.4888 32.8974 20.6815 32.8974 23.3864Z" stroke="#E8D6AD"/>
<path d="M41.8484 28.8296C44.1958 28.8296 46.0986 26.9267 46.0986 24.5794C46.0986 22.2321 44.1958 20.3292 41.8484 20.3292C39.5011 20.3292 37.5983 22.2321 37.5983 24.5794C37.5983 26.9267 39.5011 28.8296 41.8484 28.8296ZM46.235 24.5794C46.235 27.002 44.2711 28.9659 41.8484 28.9659C39.4258 28.9659 37.4619 27.002 37.4619 24.5794C37.4619 22.1568 39.4258 20.1929 41.8484 20.1929C44.2711 20.1929 46.235 22.1568 46.235 24.5794Z" stroke="#E8D6AD"/>
<path d="M14.1525 28.8296C11.8052 28.8296 9.90236 26.9267 9.90236 24.5794C9.90236 22.2321 11.8052 20.3292 14.1525 20.3292C16.4998 20.3292 18.4027 22.2321 18.4027 24.5794C18.4027 26.9267 16.4998 28.8296 14.1525 28.8296ZM9.766 24.5794C9.766 27.002 11.7299 28.9659 14.1525 28.9659C16.5751 28.9659 18.5391 27.002 18.5391 24.5794C18.5391 22.1568 16.5751 20.1929 14.1525 20.1929C11.7299 20.1929 9.766 22.1568 9.766 24.5794Z" stroke="#E8D6AD"/>
</svg>
